<svg width="71" height="47" viewBox="0 0 71 47" fill="none" xmlns="http://www.w3.org/2000/svg">
<path d="M31.0157 1.03125H35.8126V9.3125H22.8438V46.1562L22.5 46.25C22.0313 46.375 15.8594 46.375 14.5313 46.2344L13.4688 46.1406V9.3125H0.5V1.03125L4.60938 0.984374C6.85939 0.953124 12.6406 0.953124 17.4532 0.984374C22.2657 1.01562 28.3594 1.03125 31.0157 1.03125ZM67.6251 42.25C65.7189 44.2656 63.672 45.3906 60.2657 46.3125C58.7813 46.7187 58.5313 46.7344 55.1876 46.7188C51.8438 46.7031 51.5782 46.7031 49.9532 46.2812C45.7501 45.2031 42.3594 43.0937 40.0469 40.1094C39.3907 39.2656 38.3126 37.5156 38.3126 37.2969C38.3126 37.2344 38.4688 37.0937 38.6719 37C38.8751 36.9062 39.2969 36.6406 39.6407 36.4375C39.9844 36.2344 40.6094 35.8594 41.0313 35.6406C41.4532 35.4219 42.6719 34.7031 43.7345 34.0625C44.797 33.4219 45.7657 32.9062 45.8751 32.9062C45.9845 32.9062 46.1876 33.125 46.3438 33.3906C47.2813 34.9687 49.4688 36.9844 51.0157 37.6719C51.9688 38.0781 54.0782 38.5312 55.0938 38.5312C56.0313 38.5312 57.7501 38.125 58.672 37.7031C59.6563 37.25 60.1564 36.7969 60.7501 35.8906C61.1564 35.25 61.2032 35.0781 61.1876 33.8594C61.1876 32.7344 61.1251 32.4219 60.8126 31.9062C59.9376 30.4687 58.7501 29.7187 53.9376 27.5937C48.9688 25.3906 46.7345 24.0781 44.9219 22.3125C43.5782 21 43.3126 20.6406 42.4688 19C41.3751 16.8906 41.2344 16.2031 41.2188 13.0625C41.2032 10.8594 41.2501 10.1406 41.4844 9.39062C41.8126 8.26562 42.8751 6.09375 43.3594 5.54687C44.3594 4.375 44.7188 4.01562 45.422 3.4375C47.547 1.6875 50.8595 0.53125 54.0313 0.421875C54.3907 0.421875 55.5782 0.484374 56.6876 0.562499C59.8751 0.828124 62.047 1.60937 64.1407 3.28125C65.7189 4.53125 68.1095 7.46875 67.8751 7.85938C67.7189 8.09375 61.4845 12.25 61.0782 12.375C60.8282 12.4531 60.6564 12.3594 60.3126 11.9531C58.1876 9.40625 57.3282 8.85937 55.2657 8.73437C53.797 8.64062 53.0157 8.8125 52.0313 9.46875C51.0001 10.1562 50.5001 11.2031 50.5001 12.6562C50.5157 14.7812 51.3282 15.7812 54.3282 17.2656C56.2657 18.2187 57.922 19 58.047 19C58.2345 19 62.2501 21 63.297 21.625C68.172 24.4844 70.1564 27.4219 70.672 32.4844C71.047 36.2969 69.9689 39.7812 67.6251 42.25Z" fill="white"/>
</svg>
